<?xml version="1.0" encoding="UTF-8" standalone="no"?>
<!-- Created with Inkscape (http://www.inkscape.org/) -->

<svg
   width="62.587067mm"
   height="36.725807mm"
   viewBox="0 0 62.587067 36.725807"
   version="1.1"
   id="svg5"
   inkscape:export-filename="bighorozontalhexes.svg"
   inkscape:export-xdpi="140.06285"
   inkscape:export-ydpi="140.06285"
   xmlns:inkscape="http://www.inkscape.org/namespaces/inkscape"
   xmlns:sodipodi="http://sodipodi.sourceforge.net/DTD/sodipodi-0.dtd"
   xmlns="http://www.w3.org/2000/svg"
   xmlns:svg="http://www.w3.org/2000/svg">
  <sodipodi:namedview
     id="namedview7"
     pagecolor="#ffffff"
     bordercolor="#000000"
     borderopacity="0.25"
     inkscape:showpageshadow="2"
     inkscape:pageopacity="0.0"
     inkscape:pagecheckerboard="0"
     inkscape:deskcolor="#d1d1d1"
     inkscape:document-units="mm"
     showgrid="false" />
  <defs
     id="defs2" />
  <g
     inkscape:label="Layer 1"
     inkscape:groupmode="layer"
     id="layer1"
     transform="translate(-3.636958,-27.232595)">
    <g
       id="g27882"
       inkscape:export-filename="hexes.svg"
       inkscape:export-xdpi="121.7504"
       inkscape:export-ydpi="121.7504"
       transform="rotate(-90,34.93049,45.5955)">
      <g
         id="g27969"
         inkscape:export-filename="horozontalhexes.svg"
         inkscape:export-xdpi="121.7504"
         inkscape:export-ydpi="121.7504">
        <g
           id="g28653"
           inkscape:export-filename="./bighexes.svg"
           inkscape:export-xdpi="779.20258"
           inkscape:export-ydpi="779.20258">
          <path
             id="path7093"
             style="fill:#000000;stroke-width:0.145817"
             d="m 20.295328,14.301968 -3.727746,6.456699 3.727746,6.456699 h 7.455492 l 3.728031,-6.456699 -3.728031,-6.456699 z m 0.247491,0.494698 h 6.96051 l 3.48054,5.962001 -3.48054,5.961717 h -6.96051 L 17.06228,20.758667 Z" />
          <path
             id="path7093-8"
             style="fill:#000000;stroke-width:0.145817"
             d="m 31.173841,20.348204 -3.727746,6.456699 3.727746,6.456699 h 7.455492 l 3.728031,-6.456699 -3.728031,-6.456699 z m 0.247492,0.494698 h 6.960509 l 3.48054,5.962001 -3.48054,5.961717 h -6.960509 l -3.48054,-5.961717 z" />
          <path
             id="path7093-8-9"
             style="fill:#000000;stroke-width:0.145817"
             d="m 20.485302,26.720669 -3.727746,6.456699 3.727746,6.456699 h 7.455492 l 3.728031,-6.456699 -3.728031,-6.456699 z m 0.247492,0.494698 h 6.960509 l 3.48054,5.962001 -3.48054,5.961717 h -6.960509 l -3.48054,-5.961717 z" />
          <path
             id="path7093-8-7"
             style="fill:#000000;stroke-width:0.145817"
             d="m 31.173841,32.68267 -3.727746,6.456699 3.727746,6.456699 h 7.455492 l 3.728031,-6.456699 -3.728031,-6.456699 z m 0.247492,0.494698 h 6.960509 l 3.48054,5.962001 -3.48054,5.961717 h -6.960509 l -3.48054,-5.961717 z" />
          <path
             id="path7093-8-3"
             style="fill:#000000;stroke-width:0.145817"
             d="m 20.485302,39.138801 -3.727746,6.456699 3.727746,6.456699 h 7.455492 L 31.668825,45.5955 27.940794,39.138801 Z m 0.247492,0.494698 h 6.960509 l 3.48054,5.962001 -3.48054,5.961717 H 20.732794 L 17.252254,45.5955 Z" />
          <path
             id="path7093-8-6"
             style="fill:#000000;stroke-width:0.145817"
             d="m 31.421332,45.10137 -3.727746,6.456699 3.727746,6.456699 h 7.455492 l 3.728031,-6.456699 -3.728031,-6.456699 z m 0.247492,0.494698 h 6.960509 l 3.48054,5.962001 -3.48054,5.961717 h -6.960509 l -3.48054,-5.961717 z" />
          <path
             id="path7093-8-6-1"
             style="fill:#000000;stroke-width:0.145817"
             d="m 42.109872,38.644671 -3.727746,6.456699 3.727746,6.456699 h 7.455492 l 3.728031,-6.456699 -3.728031,-6.456699 z m 0.247492,0.494698 h 6.960509 l 3.48054,5.962001 -3.48054,5.961717 h -6.960509 l -3.48054,-5.961717 z" />
          <path
             id="path7093-8-6-2"
             style="fill:#000000;stroke-width:0.145817"
             d="m 20.732794,51.557217 -3.727746,6.456699 3.727746,6.456699 h 7.455492 l 3.728031,-6.456699 -3.728031,-6.456699 z m 0.247492,0.494698 h 6.960509 l 3.48054,5.962001 -3.48054,5.961717 h -6.960509 l -3.48054,-5.961717 z" />
          <path
             id="path7093-8-6-9"
             style="fill:#000000;stroke-width:0.145817"
             d="m 20.980286,63.975633 -3.727746,6.456699 3.727746,6.456699 h 7.455492 l 3.728031,-6.456699 -3.728031,-6.456699 z m 0.247492,0.494698 h 6.960509 l 3.48054,5.962001 -3.48054,5.961717 h -6.960509 l -3.48054,-5.961717 z" />
          <path
             sodipodi:type="star"
             style="fill:#000000;stroke-width:0.264583"
             id="path27061"
             inkscape:flatsided="true"
             sodipodi:sides="6"
             sodipodi:cx="23.718206"
             sodipodi:cy="20.758667"
             sodipodi:r1="6.9031334"
             sodipodi:r2="5.9782891"
             sodipodi:arg1="1.0471976"
             sodipodi:arg2="1.5707963"
             inkscape:rounded="0"
             inkscape:randomized="0"
             d="m 27.169773,26.736956 -6.903134,0 -3.451566,-5.978289 3.451567,-5.978289 6.903133,0 3.451567,5.978289 z"
             transform="matrix(1.0579442,0,0,1,-1.2218268,6.709161e-7)" />
          <path
             sodipodi:type="star"
             style="fill:#ff0000;stroke-width:0.264583"
             id="path27061-1"
             inkscape:flatsided="true"
             sodipodi:sides="6"
             sodipodi:cx="23.718206"
             sodipodi:cy="20.758667"
             sodipodi:r1="6.9031334"
             sodipodi:r2="5.9782891"
             sodipodi:arg1="1.0471976"
             sodipodi:arg2="1.5707963"
             inkscape:rounded="0"
             inkscape:randomized="0"
             d="m 27.169773,26.736956 -6.903134,0 -3.451566,-5.978289 3.451567,-5.978289 6.903133,0 3.451567,5.978289 z"
             transform="matrix(1.0162097,0,0,0.99725436,11.087155,30.856335)" />
          <path
             sodipodi:type="star"
             style="fill:#ff0000;stroke-width:0.264583"
             id="path27061-1-4"
             inkscape:flatsided="true"
             sodipodi:sides="6"
             sodipodi:cx="23.718206"
             sodipodi:cy="20.758667"
             sodipodi:r1="6.9031334"
             sodipodi:r2="5.9782891"
             sodipodi:arg1="1.0471976"
             sodipodi:arg2="1.5707963"
             inkscape:rounded="0"
             inkscape:randomized="0"
             d="m 27.169773,26.736956 -6.903134,0 -3.451566,-5.978289 3.451567,-5.978289 6.903133,0 3.451567,5.978289 z"
             transform="matrix(1.0162097,0,0,0.99725436,0.11051908,24.893829)" />
          <path
             sodipodi:type="star"
             style="fill:#000000;stroke-width:0.264583"
             id="path27061-3-7"
             inkscape:flatsided="true"
             sodipodi:sides="6"
             sodipodi:cx="23.718206"
             sodipodi:cy="20.758667"
             sodipodi:r1="6.9031334"
             sodipodi:r2="5.9782891"
             sodipodi:arg1="1.0471976"
             sodipodi:arg2="1.5707963"
             inkscape:rounded="0"
             inkscape:randomized="0"
             d="m 27.169773,26.736956 -6.903134,0 -3.451566,-5.978289 3.451567,-5.978289 6.903133,0 3.451567,5.978289 z"
             transform="matrix(1.0579442,0,0,1,20.745222,24.342703)" />
          <path
             sodipodi:type="star"
             style="fill:#ff0000;stroke-width:0.264583"
             id="path27061-1-8"
             inkscape:flatsided="true"
             sodipodi:sides="6"
             sodipodi:cx="23.718206"
             sodipodi:cy="20.758667"
             sodipodi:r1="6.9031334"
             sodipodi:r2="5.9782891"
             sodipodi:arg1="1.0471976"
             sodipodi:arg2="1.5707963"
             inkscape:rounded="0"
             inkscape:randomized="0"
             d="m 27.169773,26.736956 -6.903134,0 -3.451566,-5.978289 3.451567,-5.978289 6.903133,0 3.451567,5.978289 z"
             transform="matrix(1.0162097,0,0,0.99725436,0.60550308,49.714247)" />
          <path
             sodipodi:type="star"
             style="fill:#ff0000;stroke-width:0.264583"
             id="path27061-1-45"
             inkscape:flatsided="true"
             sodipodi:sides="6"
             sodipodi:cx="23.718206"
             sodipodi:cy="20.758667"
             sodipodi:r1="6.9031334"
             sodipodi:r2="5.9782891"
             sodipodi:arg1="1.0471976"
             sodipodi:arg2="1.5707963"
             inkscape:rounded="0"
             inkscape:randomized="0"
             d="m 27.169773,26.736956 -6.903134,0 -3.451566,-5.978289 3.451567,-5.978289 6.903133,0 3.451567,5.978289 z"
             transform="matrix(1.0162097,0,0,0.99725436,10.799058,6.0190607)" />
          <path
             sodipodi:type="star"
             style="fill:#000000;stroke-width:0.264583"
             id="path27061-3"
             inkscape:flatsided="true"
             sodipodi:sides="6"
             sodipodi:cx="23.718206"
             sodipodi:cy="20.758667"
             sodipodi:r1="6.9031334"
             sodipodi:r2="5.9782891"
             sodipodi:arg1="1.0471976"
             sodipodi:arg2="1.5707963"
             inkscape:rounded="0"
             inkscape:randomized="0"
             d="m 27.169773,26.736956 -6.903134,0 -3.451566,-5.978289 3.451567,-5.978289 6.903133,0 3.451567,5.978289 z"
             transform="matrix(1.0579442,0,0,1,-0.8793484,12.403423)" />
        </g>
      </g>
    </g>
  </g>
</svg>
